<svg height="464pt" viewBox="-48 0 464 464" width="464pt" xmlns="http://www.w3.org/2000/svg"><path d="m0 464h368v-464h-288l-80 80zm0 0" fill="#4398d1"/><path d="m0 384h368v80h-368zm0 0" fill="#e34b87"/><path d="m80 80v-80l-80 80zm0 0" fill="#87ced9"/><g fill="#368ec9"><path d="m90.34375 192 11.3125-11.3125-26.34375-26.34375 26.34375-26.34375-11.3125-11.3125-32 32c-3.121094 3.125-3.121094 8.1875 0 11.3125zm0 0"/><path d="m56 258.34375h192v16h-192zm0 0"/><path d="m56 314.34375h48v16h-48zm0 0"/><path d="m264 258.34375h48v16h-48zm0 0"/><path d="m120 146.34375h128v16h-128zm0 0"/><path d="m168 202.34375h144v16h-144zm0 0"/><path d="m56 202.34375h96v16h-96zm0 0"/><path d="m264 146.34375h48v16h-48zm0 0"/><path d="m120 314.34375h128v16h-128zm0 0"/><path d="m277.65625 284.6875-11.3125 11.3125 26.34375 26.34375-26.34375 26.34375 11.3125 11.3125 32-32c3.121094-3.125 3.121094-8.1875 0-11.3125zm0 0"/></g><path d="m90.34375 181.65625 11.3125-11.3125-26.34375-26.34375 26.34375-26.34375-11.3125-11.3125-32 32c-3.121094 3.125-3.121094 8.1875 0 11.3125zm0 0" fill="#e34b87"/><path d="m56 248h192v16h-192zm0 0" fill="#87ced9"/><path d="m56 304h48v16h-48zm0 0" fill="#87ced9"/><path d="m264 248h48v16h-48zm0 0" fill="#87ced9"/><path d="m120 136h128v16h-128zm0 0" fill="#87ced9"/><path d="m168 192h144v16h-144zm0 0" fill="#87ced9"/><path d="m56 192h96v16h-96zm0 0" fill="#87ced9"/><path d="m264 136h48v16h-48zm0 0" fill="#87ced9"/><path d="m120 304h128v16h-128zm0 0" fill="#87ced9"/><path d="m277.65625 274.34375-11.3125 11.3125 26.34375 26.34375-26.34375 26.34375 11.3125 11.3125 32-32c3.121094-3.125 3.121094-8.1875 0-11.3125zm0 0" fill="#e34b87"/><path d="m160 416h16v16h-16zm0 0" fill="#eaeef0"/><path d="m128 416h16v16h-16zm0 0" fill="#eaeef0"/><path d="m192 416h16v16h-16zm0 0" fill="#eaeef0"/><path d="m224 416h16v16h-16zm0 0" fill="#eaeef0"/><path d="m0 80h64v16h-64zm0 0" fill="#368ec9"/><path d="m0 368h368v16h-368zm0 0" fill="#368ec9"/></svg>