<svg height="464pt" viewBox="-48 0 464 464" width="464pt" xmlns="http://www.w3.org/2000/svg"><path d="m0 384h368v80h-368zm0 0" fill="#4398d1"/><path d="m0 384h368v-384h-288l-80 66.207031zm0 0" fill="#dbdfe0"/><path d="m80 66.207031v-66.207031l-80 66.207031zm0 0" fill="#eaeef0"/><path d="m0 66.207031h64v13.242188h-64zm0 0" fill="#d1d4d6"/><g fill="#e8594a"><path d="m184 104h16v48h-16zm0 0"/><path d="m184 280h16v48h-16zm0 0"/><path d="m129.070312 123.011719 13.855469-8 24 41.570312-13.859375 8zm0 0"/><path d="m217.070312 275.425781 13.855469-8 24 41.570313-13.855469 8zm0 0"/><path d="m91 166.929688 8-13.855469 41.570312 24-8 13.855469zm0 0"/><path d="m243.421875 254.925781 7.996094-13.859375 41.570312 24-8 13.859375zm0 0"/><path d="m80 208h48v16h-48zm0 0"/><path d="m256 208h48v16h-48zm0 0"/><path d="m91.003906 265.066406 41.570313-23.996094 8 13.855469-41.570313 24zm0 0"/><path d="m243.417969 177.074219 41.570312-24 8 13.859375-41.570312 23.996094zm0 0"/><path d="m129.074219 308.996094 23.996093-41.570313 13.859376 7.996094-23.996094 41.574219zm0 0"/><path d="m217.074219 156.578125 23.996093-41.574219 13.855469 8-23.996093 41.570313zm0 0"/></g><path d="m168 416h16v16h-16zm0 0" fill="#dbdfe0"/><path d="m136 416h16v16h-16zm0 0" fill="#dbdfe0"/><path d="m200 416h16v16h-16zm0 0" fill="#dbdfe0"/><path d="m232 416h16v16h-16zm0 0" fill="#dbdfe0"/><path d="m0 368h368v16h-368zm0 0" fill="#d1d4d6"/></svg>