<svg height="464pt" viewBox="-48 0 464 464" width="464pt" xmlns="http://www.w3.org/2000/svg"><path d="m0 464h368v-464h-288l-80 80zm0 0" fill="#ffb730"/><path d="m80 80v-80l-80 80zm0 0" fill="#ffd991"/><path d="m239.710938 348.351562-11.710938-76.351562h8v-48h-64v48h8l-11.742188 76.351562c-1.066406 6.914063.941407 13.949219 5.492188 19.261719 4.554688 5.316407 11.199219 8.378907 18.195312 8.386719h24.054688c7-.003906 13.652344-3.0625 18.207031-8.375 4.558594-5.316406 6.570313-12.355469 5.503907-19.273438zm0 0" fill="#f79d1e"/><path d="m219.742188 348.351562-11.742188-76.351562h8v-48h-64v48h8l-11.742188 76.351562c-1.066406 6.925782.949219 13.96875 5.511719 19.285157 4.566407 5.316406 11.222657 8.371093 18.230469 8.363281h24c7.007812.007812 13.664062-3.046875 18.230469-8.363281 4.5625-5.316407 6.578125-12.359375 5.511719-19.285157zm0 0" fill="#dedede"/><path d="m216 40v-16h-24v-24h-16v24h-24v16h24v16h-24v16h24v16h-24v16h24v16h-24v16h24v16h-24v16h24v16h-24v16h24v48h16v-48h24v-16h-24v-16h24v-16h-24v-16h24v-16h-24v-16h24v-16h-24v-16h24v-16h-24v-16zm0 0" fill="#fd882f"/><path d="m176 336h16v16h-16zm0 0" fill="#c7c7c7"/><path d="m0 80h64v16h-64zm0 0" fill="#f79d1e"/><path d="m210.464844 288-2.464844-16h-48l-2.464844 16zm0 0" fill="#c7c7c7"/><path d="m176 224h16v24h-16zm0 0" fill="#f79d1e"/></svg>