<?xml version="1.0" encoding="iso-8859-1"?>
<!-- Generator: Adobe Illustrator 16.0.0, SVG Export Plug-In . SVG Version: 6.00 Build 0)  -->
<!DOCTYPE svg PUBLIC "-//W3C//DTD SVG 1.1//EN" "http://www.w3.org/Graphics/SVG/1.1/DTD/svg11.dtd">
<svg version="1.1" id="Capa_1" xmlns="http://www.w3.org/2000/svg" xmlns:xlink="http://www.w3.org/1999/xlink" x="0px" y="0px"
	 width="581.027px" height="581.027px" viewBox="0 0 581.027 581.027" style="enable-background:new 0 0 581.027 581.027;"
	 xml:space="preserve">
<g>
	<g>
		<path d="M66.413,574.213c2.341-1.258,4.97-2.748,7.871-4.426c2.824-1.775,6.328-3.197,9.939-4.957
			c1.851-0.814,3.65-1.83,5.688-2.625c2.01-0.818,4.094-1.662,6.249-2.537c4.229-1.846,8.923-3.424,13.819-5.117
			c4.819-1.832,10.159-3.191,15.554-4.873c5.444-1.592,11.228-2.967,17.124-4.496c6.034-1.199,12.108-2.846,18.546-3.926
			c3.195-0.6,6.436-1.205,9.716-1.82c3.268-0.643,6.643-1.053,10.012-1.602c6.735-1.092,13.666-2.01,20.71-2.885
			c7.047-0.844,14.248-1.543,21.512-2.277c3.648-0.271,7.317-0.545,11.004-0.82c3.675-0.363,7.39-0.562,11.117-0.758
			c14.893-0.955,30.07-1.246,45.233-1.346c7.579,0.141,15.174-0.029,22.717,0.354c3.773,0.16,7.539,0.273,11.301,0.359
			c3.752,0.205,7.49,0.406,11.219,0.607c7.463,0.34,14.816,1.094,22.125,1.57c3.645,0.301,7.246,0.754,10.836,1.113
			c3.584,0.408,7.174,0.637,10.68,1.158c7.045,0.887,13.979,1.783,20.713,2.879c3.369,0.547,6.744,0.957,10.012,1.604
			c3.281,0.615,6.521,1.221,9.717,1.816c6.438,1.078,12.512,2.74,18.549,3.93c5.9,1.533,11.68,2.916,17.127,4.498
			c5.398,1.684,10.734,3.051,15.555,4.881c4.896,1.693,9.586,3.281,13.818,5.123c2.152,0.875,4.236,1.723,6.248,2.543
			c2.039,0.795,3.842,1.809,5.689,2.625c3.602,1.76,7.127,3.201,9.904,4.945c2.871,1.658,5.49,3.137,7.832,4.395
			c2.219,1.484,4.105,2.748,5.637,3.771c3.086,2.027,4.732,3.107,4.732,3.107s-1.236-1.531-3.555-4.4
			c-1.182-1.414-2.641-3.156-4.355-5.203c-1.881-1.922-4.117-4.1-6.686-6.535c-2.506-2.576-5.582-4.826-8.84-7.559
			c-3.213-2.818-7.023-5.307-11.072-8.068c-8.09-5.555-17.783-10.891-28.652-16.127c-5.43-2.641-11.258-4.896-17.25-7.467
			c-3.045-1.111-6.141-2.236-9.283-3.385c-3.152-1.146-6.355-2.307-9.648-3.285c-6.555-2.109-13.352-4.113-20.35-5.857
			c-6.971-1.967-14.191-3.375-21.529-4.941c-14.695-2.924-30.016-5.275-45.658-6.678c-13.023-1.416-26.273-1.916-39.557-2.199
			c22.809-51.127,25.348-110.209,18.861-171.242c2.646-5.027,4.99-10.156,7.148-15.342c7.297-4.135,15.271-7.252,23.328-8.887
			c17.557-3.564,35.803-3.506,52.643-10.299c11.725-4.735,21.906-14.374,29.84-24.056c-9.65,6.123-21.82,7.069-32.912,6.919
			c-13.941-0.187-27.797-1.178-41.549,1.72c-8.715,1.836-16.586,6.12-23.125,11.98c7.242-22.604,12.611-45.854,21.523-68.091
			c8.418-5.474,18.016-9.581,27.725-11.552c17.555-3.565,35.801-3.506,52.641-10.303c11.727-4.734,21.906-14.373,29.842-24.052
			c-9.652,6.123-21.82,7.069-32.914,6.919c-13.941-0.187-27.797-1.178-41.549,1.72c-9.045,1.906-17.166,6.462-23.846,12.665
			c6.793-11.649,15.307-22.797,26.389-33.18c4.135-1.539,8.666-2.365,13.027-2.175c7.414,0.321,14.742,2.169,22.188,1.12
			c5.188-0.731,10.242-3.589,14.4-6.686c-4.492,1.497-9.477,0.661-13.924-0.508c-5.584-1.469-11.055-3.253-16.871-3.461
			c-1.904-0.067-3.777,0.184-5.592,0.643c7.252-5.416,15.352-10.578,24.551-15.413c-49.26,20.132-76.115,59.894-95.053,99.609
			c-0.59-1.218-1.262-2.402-2.072-3.513c-3.975-5.438-9.229-9.523-14.26-13.923c-4.002-3.501-8.035-7.736-9.516-13.011
			c-0.273,5.991,0.266,12.69,2.932,18.133c3.824,7.815,10.348,13.642,15.461,20.536c0.777,1.047,1.484,2.161,2.152,3.305
			c-6.496,14.642-12.104,29.015-17.549,42.12c-3.691-23.503-8.363-47.108-13.389-70.486c1.885-9.11,5.301-18.069,10.105-25.854
			c9.402-15.248,21.924-28.522,28.479-45.453c4.566-11.793,4.492-25.814,2.855-38.223c-2.133,11.227-9.766,20.753-17.457,28.749
			c-9.67,10.046-19.869,19.477-27.158,31.494c-2.279,3.758-3.951,7.778-5.116,11.937c-7.684-33.859-15.401-66.821-21.188-97.85
			c2.169-6.417,5.56-12.62,9.994-17.644c7.586-8.595,16.925-15.609,22.898-25.575c4.158-6.943,5.637-15.793,5.951-23.798
			c-2.564,6.852-8.412,12.029-14.131,16.236c-7.188,5.285-14.645,10.129-20.547,16.916c-3.963,4.556-6.316,10.165-7.295,16.04
			C262.461,43.467,259.977,20.78,259.977,0c-2.564,47.745,2.84,95,11.035,141.862c-3.7-3.682-8.143-6.576-13.167-8.271
			c-5.373-1.814-10.881-2.711-16.441-3.354c-16.606-35.866-26.444-73.887-9.208-104.655c-13.424,18.455-15.655,43.085-12.589,67.73
			c-4.327-6.166-10.293-11.114-17.512-13.553c-9.192-3.103-18.773-3.549-28.345-4.556c-7.62-0.802-15.884-2.439-22.001-7.421
			c4.651,7.28,10.848,14.716,18.504,18.914c10.988,6.028,23.504,7.47,35.251,11.34c5.78,1.903,11.365,4.96,16.276,8.736
			c1.475,7.494,3.345,14.881,5.447,21.989c-6.956-0.894-14.21-2.659-19.725-7.148c4.651,7.279,10.848,14.715,18.503,18.914
			c1.931,1.059,3.923,1.94,5.937,2.754c1.91,5.404,3.893,10.542,5.86,15.309c13.125,31.864,28.262,63.217,40.337,95.454
			c-5.945-7.112-13.577-12.73-22.479-15.738c-13.314-4.498-27.191-5.144-41.056-6.601c-11.034-1.16-23.008-3.531-31.87-10.747
			c6.738,10.545,15.713,21.316,26.803,27.399c15.921,8.73,34.049,10.82,51.062,16.429c9.474,3.121,18.58,8.378,26.331,14.868
			c6.107,19.848,10.619,40.154,12.335,61.24c4.678,57.396-16.925,104.869-28.514,158.756c-9.318,0.33-18.599,0.848-27.763,1.846
			c-15.646,1.369-30.961,3.764-45.662,6.658c-7.334,1.578-14.562,2.965-21.533,4.938c-7.001,1.744-13.792,3.762-20.352,5.857
			c-3.292,0.982-6.496,2.143-9.648,3.289c-3.146,1.145-6.243,2.273-9.287,3.383c-5.992,2.57-11.818,4.838-17.25,7.469
			c-10.869,5.242-20.563,10.582-28.654,16.139c-4.045,2.77-7.858,5.254-11.068,8.074c-3.253,2.73-6.35,5-8.81,7.543
			c-2.537,2.418-4.765,4.584-6.646,6.506c-1.781,2.051-3.225,3.85-4.418,5.268c-2.316,2.869-3.55,4.402-3.55,4.402
			s1.649-1.08,4.737-3.104C62.355,576.914,64.219,575.672,66.413,574.213z M250.662,148.894c3.556,0.903,7.105,1.833,10.587,2.98
			c4.437,1.462,8.721,3.65,12.714,6.27c3.069,16.368,6.398,32.687,9.786,48.966C274.72,190.681,262.073,170.521,250.662,148.894z"/>
	</g>
</g>
<g>
</g>
<g>
</g>
<g>
</g>
<g>
</g>
<g>
</g>
<g>
</g>
<g>
</g>
<g>
</g>
<g>
</g>
<g>
</g>
<g>
</g>
<g>
</g>
<g>
</g>
<g>
</g>
<g>
</g>
</svg>
